<?xml version="1.0" encoding="UTF-8" standalone="no"?>
<!-- Created with Inkscape (http://www.inkscape.org/) -->

<svg
   xmlns:dc="http://purl.org/dc/elements/1.1/"
   xmlns:cc="http://creativecommons.org/ns#"
   xmlns:rdf="http://www.w3.org/1999/02/22-rdf-syntax-ns#"
   xmlns:svg="http://www.w3.org/2000/svg"
   xmlns="http://www.w3.org/2000/svg"
   xmlns:sodipodi="http://sodipodi.sourceforge.net/DTD/sodipodi-0.dtd"
   xmlns:inkscape="http://www.inkscape.org/namespaces/inkscape"
   width="210mm"
   height="297mm"
   viewBox="0 0 210 297"
   version="1.1"
   id="svg8"
   sodipodi:docname="logo.svg"
   inkscape:version="0.92.2 5c3e80d, 2017-08-06"
   inkscape:export-filename="/home/avery/Websites/averylaird.com/favicon-16x16.png"
   inkscape:export-xdpi="96"
   inkscape:export-ydpi="96">
  <defs
     id="defs2" />
  <sodipodi:namedview
     id="base"
     pagecolor="#ffffff"
     bordercolor="#666666"
     borderopacity="1.0"
     inkscape:pageopacity="0.0"
     inkscape:pageshadow="2"
     inkscape:zoom="90.509668"
     inkscape:cx="193.71605"
     inkscape:cy="897.9959"
     inkscape:document-units="mm"
     inkscape:current-layer="layer1"
     showgrid="true"
     inkscape:window-width="1920"
     inkscape:window-height="1016"
     inkscape:window-x="0"
     inkscape:window-y="27"
     inkscape:window-maximized="1">
    <inkscape:grid
       type="xygrid"
       id="grid3699" />
  </sodipodi:namedview>
  <metadata
     id="metadata5">
    <rdf:RDF>
      <cc:Work
         rdf:about="">
        <dc:format>image/svg+xml</dc:format>
        <dc:type
           rdf:resource="http://purl.org/dc/dcmitype/StillImage" />
      </cc:Work>
    </rdf:RDF>
  </metadata>
  <g
     inkscape:groupmode="layer"
     id="layer2"
     inkscape:label="export">
    <rect
       style="fill:none;stroke:none;stroke-width:0.00306486;stroke-opacity:1"
       id="rect3764"
       width="0.94925243"
       height="0.90468121"
       x="51.004967"
       y="59.248898"
       inkscape:export-xdpi="6.2729855"
       inkscape:export-ydpi="6.2729855" />
  </g>
  <g
     inkscape:label="Layer 1"
     inkscape:groupmode="layer"
     id="layer1">
    <path
       style="fill:none;stroke:#000000;stroke-width:0.00378462px;stroke-linecap:butt;stroke-linejoin:miter;stroke-opacity:1"
       d="m 51.330993,59.250319 h 0.232604 l 0.174452,0.868253 h -0.193836 l -0.05815,-0.277102 h -0.15507 l -0.05815,0.277102 h -0.21322 l 0.193836,-0.868253 z"
       id="path3701"
       inkscape:connector-curvature="0"
       sodipodi:nodetypes="cccccccccc"
       inkscape:export-xdpi="96"
       inkscape:export-ydpi="96" />
    <path
       style="fill:none;stroke:#000000;stroke-width:0.00378462px;stroke-linecap:butt;stroke-linejoin:miter;stroke-opacity:1"
       d="m 51.330993,59.693682 h 0.15507 l -0.03877,-0.221681 h -0.07753 z"
       id="path3703"
       inkscape:connector-curvature="0"
       inkscape:export-xdpi="96"
       inkscape:export-ydpi="96" />
    <path
       style="fill:none;stroke:#000000;stroke-width:0.00378462px;stroke-linecap:butt;stroke-linejoin:miter;stroke-opacity:1"
       d="m 51.563597,59.250319 0.155068,0.05542 0.193837,0.84978 -0.174453,-0.03695"
       id="path3705"
       inkscape:connector-curvature="0"
       sodipodi:nodetypes="cccc"
       inkscape:export-xdpi="96"
       inkscape:export-ydpi="96" />
    <path
       style="fill:none;stroke:#000000;stroke-width:0.00378462px;stroke-linecap:butt;stroke-linejoin:miter;stroke-opacity:1"
       d="m 51.544213,60.118572 0.116302,0.03695 h 0.251987"
       id="path3707"
       inkscape:connector-curvature="0"
       sodipodi:nodetypes="ccc"
       inkscape:export-xdpi="96"
       inkscape:export-ydpi="96" />
    <path
       style="fill:none;stroke:#000000;stroke-width:0.00378462px;stroke-linecap:butt;stroke-linejoin:miter;stroke-opacity:1"
       d="m 51.272843,60.118572 0.116301,0.03695 0.05815,-0.314049"
       id="path3709"
       inkscape:connector-curvature="0"
       sodipodi:nodetypes="ccc"
       inkscape:export-xdpi="96"
       inkscape:export-ydpi="96" />
    <path
       style="fill:none;stroke:#000000;stroke-width:0.00378462px;stroke-linecap:butt;stroke-linejoin:miter;stroke-opacity:1"
       d="m 51.059622,60.118572 0.135686,0.03695 h 0.193836"
       id="path3711"
       inkscape:connector-curvature="0"
       sodipodi:nodetypes="ccc"
       inkscape:export-xdpi="96"
       inkscape:export-ydpi="96" />
    <path
       style="stroke-width:0.00191152"
       d="m 51.353238,59.583664 0.01884,-0.107768 0.03664,-5.13e-4 c 0.02016,-2.93e-4 0.03664,-4.2e-5 0.03664,5.13e-4 0,5.62e-4 0.0084,0.04885 0.0186,0.107283 0.01023,0.05844 0.0186,0.106694 0.0186,0.10724 0,5.63e-4 -0.03334,9.47e-4 -0.07408,9.47e-4 h -0.07408 z"
       id="path3723"
       inkscape:connector-curvature="0"
       inkscape:export-xdpi="96"
       inkscape:export-ydpi="96" />
    <path
       style="stroke-width:0.00191152"
       d="m 51.331209,60.134509 c -0.04586,-0.01459 -0.05523,-0.01816 -0.05445,-0.02071 5.32e-4,-0.0017 0.01346,-0.06292 0.02875,-0.136047 l 0.02782,-0.13296 h 0.05533 c 0.05169,0 0.05528,2.18e-4 0.05455,0.0033 -4.22e-4,0.0018 -0.01315,0.07044 -0.02828,0.152553 -0.01512,0.08211 -0.02769,0.149792 -0.02792,0.150408 -2.44e-4,6.12e-4 -0.02535,-0.0068 -0.05581,-0.01651 z"
       id="path3748"
       inkscape:connector-curvature="0"
       inkscape:export-xdpi="96"
       inkscape:export-ydpi="96" />
    <path
       style="stroke-width:0.00191152"
       d="m 51.819818,60.133358 c -0.04388,-0.0094 -0.07979,-0.01762 -0.07979,-0.0183 -3e-6,-6.94e-4 -0.03877,-0.194182 -0.08615,-0.42999 -0.04738,-0.23581 -0.08585,-0.429025 -0.08549,-0.429369 5.99e-4,-5.63e-4 0.146144,0.05099 0.147448,0.05224 3.11e-4,2.93e-4 0.04336,0.188164 0.09567,0.417486 0.05231,0.229322 0.09561,0.418851 0.09622,0.421177 8.99e-4,0.0035 3.54e-4,0.0042 -0.0035,0.004 -0.0026,-1.15e-4 -0.04052,-0.0079 -0.0844,-0.01726 z"
       id="path3752"
       inkscape:connector-curvature="0"
       inkscape:export-xdpi="96"
       inkscape:export-ydpi="96" />
    <path
       style="stroke-width:0.00135165"
       d="m 51.137288,60.137377 -0.05596,-0.01536 0.09611,-3.43e-4 0.09611,-3.42e-4 0.04915,0.01574 0.04915,0.01574 -0.0893,-3.7e-5 -0.0893,-3.7e-5 z"
       id="path3754"
       inkscape:connector-curvature="0"
       inkscape:export-xdpi="96"
       inkscape:export-ydpi="96" />
    <path
       style="stroke-width:0.00135165"
       d="m 51.722379,60.157309 c 0.0344,-2.01e-4 0.0911,-2.01e-4 0.125994,0 0.0349,2.01e-4 0.0067,3.42e-4 -0.06254,3.42e-4 -0.0693,0 -0.09785,-1.61e-4 -0.06345,-3.42e-4 z"
       id="path3756"
       inkscape:connector-curvature="0"
       inkscape:export-xdpi="96"
       inkscape:export-ydpi="96" />
    <path
       style="stroke-width:0.00135165"
       d="m 51.611375,60.137186 -0.04846,-0.01563 0.08861,-6.7e-5 0.08861,-6.8e-5 0.07338,0.01569 0.07338,0.01569 -0.113534,4e-6 -0.113532,4e-6 z"
       id="path3758"
       inkscape:connector-curvature="0"
       inkscape:export-xdpi="96"
       inkscape:export-ydpi="96" />
    <rect
       style="fill:none;stroke-width:0.26458332"
       id="rect3762"
       width="88.635414"
       height="78.052086"
       x="41.010418"
       y="49.614582"
       inkscape:export-xdpi="96"
       inkscape:export-ydpi="96" />
    <path
       style="fill:#ff0000;stroke:#000000;stroke-width:0.00191152;stroke-opacity:1"
       d="m 51.068702,60.090932 c 0.003,-0.0136 0.04633,-0.207578 0.09621,-0.431064 l 0.09068,-0.40634 0.153216,-3e-6 c 0.09196,-3e-6 0.153217,6.94e-4 0.153217,0.0017 0,0.0015 0.168151,0.840069 0.171493,0.855291 l 0.0012,0.0051 h -0.09398 -0.09398 l -0.0017,-0.0079 c -9.63e-4,-0.0044 -0.01403,-0.06651 -0.02903,-0.138112 l -0.02727,-0.130181 -0.0802,4.89e-4 -0.0802,4.89e-4 -0.02888,0.137158 c -0.01588,0.07544 -0.02893,0.137368 -0.02898,0.137625 -5.2e-5,2.45e-4 -0.04669,4.65e-4 -0.103646,4.65e-4 h -0.10355 z m 0.420164,-0.398413 c -5.31e-4,-0.0018 -0.0096,-0.0526 -0.02003,-0.1129 l -0.01906,-0.109633 h -0.0413 -0.04131 l -0.01972,0.112899 -0.01972,0.1129 h 0.08106 c 0.07626,0 0.081,-2.01e-4 0.08008,-0.0033 z"
       id="path4571"
       inkscape:connector-curvature="0"
       inkscape:export-xdpi="96"
       inkscape:export-ydpi="96" />
  </g>
</svg>
