<?xml version="1.0" encoding="UTF-8" standalone="no"?>
<!-- Created with Inkscape (http://www.inkscape.org/) -->

<svg
   xmlns:dc="http://purl.org/dc/elements/1.1/"
   xmlns:cc="http://creativecommons.org/ns#"
   xmlns:rdf="http://www.w3.org/1999/02/22-rdf-syntax-ns#"
   xmlns:svg="http://www.w3.org/2000/svg"
   xmlns="http://www.w3.org/2000/svg"
   xmlns:sodipodi="http://sodipodi.sourceforge.net/DTD/sodipodi-0.dtd"
   xmlns:inkscape="http://www.inkscape.org/namespaces/inkscape"
   width="210mm"
   height="297mm"
   viewBox="0 0 210 297"
   version="1.1"
   id="svg8"
   sodipodi:docname="logo.svg"
   inkscape:version="0.92.2 5c3e80d, 2017-08-06"
   inkscape:export-filename="/home/avery/Websites/averylaird.com/favicon-16x16.png"
   inkscape:export-xdpi="96"
   inkscape:export-ydpi="96">
  <defs
     id="defs2" />
  <sodipodi:namedview
     id="base"
     pagecolor="#ffffff"
     bordercolor="#666666"
     borderopacity="1.0"
     inkscape:pageopacity="0.0"
     inkscape:pageshadow="2"
     inkscape:zoom="1.979899"
     inkscape:cx="222.41663"
     inkscape:cy="791.85596"
     inkscape:document-units="mm"
     inkscape:current-layer="layer1"
     showgrid="true"
     inkscape:window-width="1920"
     inkscape:window-height="1016"
     inkscape:window-x="0"
     inkscape:window-y="27"
     inkscape:window-maximized="1">
    <inkscape:grid
       type="xygrid"
       id="grid3699" />
  </sodipodi:namedview>
  <metadata
     id="metadata5">
    <rdf:RDF>
      <cc:Work
         rdf:about="">
        <dc:format>image/svg+xml</dc:format>
        <dc:type
           rdf:resource="http://purl.org/dc/dcmitype/StillImage" />
      </cc:Work>
    </rdf:RDF>
  </metadata>
  <g
     inkscape:groupmode="layer"
     id="layer2"
     inkscape:label="export">
    <rect
       style="fill:none;stroke:none;stroke-width:0.21426529;stroke-opacity:1"
       id="rect3764"
       width="64.785736"
       height="64.785736"
       x="51.833187"
       y="58.768581"
       inkscape:export-xdpi="6.2729855"
       inkscape:export-ydpi="6.2729855" />
  </g>
  <g
     inkscape:label="Layer 1"
     inkscape:groupmode="layer"
     id="layer1">
    <path
       style="fill:none;stroke:#000000;stroke-width:0.26458332px;stroke-linecap:butt;stroke-linejoin:miter;stroke-opacity:1"
       d="m 74.083333,58.875004 h 15.875 L 101.86458,121.05208 H 88.635417 l -3.96875,-19.84375 H 74.083333 l -3.96875,19.84375 H 55.5625 L 68.791667,58.875004 Z"
       id="path3701"
       inkscape:connector-curvature="0"
       sodipodi:nodetypes="cccccccccc"
       inkscape:export-xdpi="96"
       inkscape:export-ydpi="96" />
    <path
       style="fill:none;stroke:#000000;stroke-width:0.26458332px;stroke-linecap:butt;stroke-linejoin:miter;stroke-opacity:1"
       d="M 74.083332,90.625 H 84.666666 L 82.020832,74.75 h -5.291666 z"
       id="path3703"
       inkscape:connector-curvature="0"
       inkscape:export-xdpi="96"
       inkscape:export-ydpi="96" />
    <path
       style="fill:none;stroke:#000000;stroke-width:0.26458332px;stroke-linecap:butt;stroke-linejoin:miter;stroke-opacity:1"
       d="m 89.958332,58.875001 10.583338,3.96875 13.22916,60.854169 -11.90625,-2.64584"
       id="path3705"
       inkscape:connector-curvature="0"
       sodipodi:nodetypes="cccc"
       inkscape:export-xdpi="96"
       inkscape:export-ydpi="96" />
    <path
       style="fill:none;stroke:#000000;stroke-width:0.26458332px;stroke-linecap:butt;stroke-linejoin:miter;stroke-opacity:1"
       d="m 88.635417,121.05208 7.9375,2.64584 h 17.197913"
       id="path3707"
       inkscape:connector-curvature="0"
       sodipodi:nodetypes="ccc"
       inkscape:export-xdpi="96"
       inkscape:export-ydpi="96" />
    <path
       style="fill:none;stroke:#000000;stroke-width:0.26458332px;stroke-linecap:butt;stroke-linejoin:miter;stroke-opacity:1"
       d="m 70.114583,121.05208 7.9375,2.64584 3.968749,-22.48959"
       id="path3709"
       inkscape:connector-curvature="0"
       sodipodi:nodetypes="ccc"
       inkscape:export-xdpi="96"
       inkscape:export-ydpi="96" />
    <path
       style="fill:none;stroke:#000000;stroke-width:0.26458332px;stroke-linecap:butt;stroke-linejoin:miter;stroke-opacity:1"
       d="m 55.5625,121.05208 9.260417,2.64584 h 13.229166"
       id="path3711"
       inkscape:connector-curvature="0"
       sodipodi:nodetypes="ccc"
       inkscape:export-xdpi="96"
       inkscape:export-ydpi="96" />
    <path
       style="stroke-width:0.50507629"
       d="m 285.73808,312.7422 4.85908,-29.16816 9.45109,-0.13741 c 5.1981,-0.0756 9.45109,-0.0114 9.45109,0.14251 0,0.15396 2.1592,13.22052 4.79823,29.03679 2.63902,15.81627 4.79822,28.8778 4.79822,29.02563 0,0.14783 -8.59878,0.26879 -19.10839,0.26879 H 280.879 Z"
       id="path3723"
       inkscape:connector-curvature="0"
       transform="scale(0.26458333)"
       inkscape:export-xdpi="96"
       inkscape:export-ydpi="96" />
    <path
       style="stroke-width:0.50507629"
       d="m 280.05557,461.83293 c -11.82927,-3.95006 -14.24544,-4.91453 -14.04488,-5.60635 0.13322,-0.45956 3.47105,-17.02957 7.41739,-36.82224 l 7.17518,-35.98669 h 14.2723 c 13.3327,0 14.25903,0.0582 14.07079,0.88389 -0.11083,0.48613 -3.39272,19.06662 -7.2931,41.28998 -3.90038,22.22336 -7.14087,40.54247 -7.20109,40.70915 -0.0602,0.16667 -6.53869,-1.84381 -14.39659,-4.46774 z"
       id="path3748"
       inkscape:connector-curvature="0"
       transform="scale(0.26458333)"
       inkscape:export-xdpi="96"
       inkscape:export-ydpi="96" />
    <path
       style="stroke-width:0.50507629"
       d="m 406.09222,461.52142 c -11.31924,-2.53834 -20.58108,-4.76692 -20.58186,-4.95238 -7.8e-4,-0.18546 -10.00086,-52.55663 -22.2224,-116.38037 -12.22154,-63.82373 -22.14493,-116.11921 -22.05197,-116.21216 0.15414,-0.15415 37.69764,13.8015 38.03418,14.13804 0.08,0.08 11.18512,50.92832 24.67796,112.99619 13.49284,62.06786 24.66168,113.36563 24.81966,113.99504 0.23995,0.95606 0.0912,1.13504 -0.90396,1.08759 -0.65515,-0.0312 -10.45237,-2.1336 -21.77161,-4.67195 z"
       id="path3752"
       inkscape:connector-curvature="0"
       transform="scale(0.26458333)"
       inkscape:export-xdpi="96"
       inkscape:export-ydpi="96" />
    <path
       style="stroke-width:0.35714287"
       d="m 230.03373,462.6092 -14.43336,-4.15878 24.7905,-0.0912 24.7905,-0.0911 12.67857,4.25968 12.67857,4.25968 -23.03571,-0.01 -23.03571,-0.01 z"
       id="path3754"
       inkscape:connector-curvature="0"
       transform="scale(0.26458333)"
       inkscape:export-xdpi="96"
       inkscape:export-ydpi="96" />
    <path
       style="stroke-width:0.35714287"
       d="m 380.95798,468.0041 c 8.87356,-0.0532 23.49856,-0.0532 32.5,-4e-5 9.00143,0.0531 1.74125,0.0966 -16.13375,0.0966 -17.875,2e-5 -25.23981,-0.0435 -16.36625,-0.0966 z"
       id="path3756"
       inkscape:connector-curvature="0"
       transform="scale(0.26458333)"
       inkscape:export-xdpi="96"
       inkscape:export-ydpi="96" />
    <path
       style="stroke-width:0.35714287"
       d="m 352.32423,462.55756 -12.5,-4.22935 22.85714,-0.0183 22.85714,-0.0183 18.92858,4.24625 18.92857,4.24625 -29.28572,10e-4 -29.28571,0.001 z"
       id="path3758"
       inkscape:connector-curvature="0"
       transform="scale(0.26458333)"
       inkscape:export-xdpi="96"
       inkscape:export-ydpi="96" />
    <rect
       style="fill:none;stroke-width:0.26458332"
       id="rect3762"
       width="88.635414"
       height="78.052086"
       x="41.010418"
       y="49.614582"
       inkscape:export-xdpi="96"
       inkscape:export-ydpi="96" />
    <path
       style="fill:#ff0000;stroke:#000000;stroke-width:0.50507629;stroke-opacity:1"
       d="m 212.34205,450.0385 c 0.78408,-3.68075 11.9516,-56.1828 24.81672,-116.67123 l 23.39112,-109.97896 39.52221,-10e-4 c 23.72212,-8.4e-4 39.52222,0.18437 39.52222,0.46328 0,0.39033 43.3745,227.37148 44.23641,231.4916 l 0.29057,1.38896 h -24.24289 -24.24289 l -0.45294,-2.14658 c -0.24911,-1.18061 -3.61838,-18.00213 -7.48727,-37.38114 l -7.03433,-35.23458 -20.68709,0.13178 -20.68708,0.13177 -7.44979,37.1231 c -4.09738,20.41771 -7.46088,37.17993 -7.47442,37.24938 -0.0135,0.0695 -12.04448,0.12627 -26.7354,0.12627 H 210.91644 Z M 320.72334,342.20471 c -0.13818,-0.48613 -2.46347,-14.23683 -5.16732,-30.55711 l -4.91609,-29.67323 h -10.65544 -10.65543 l -5.08568,30.55711 -5.08569,30.55712 h 20.90844 c 19.67179,0 20.89359,-0.0523 20.65721,-0.88389 z"
       id="path4571"
       inkscape:connector-curvature="0"
       transform="scale(0.26458333)"
       inkscape:export-xdpi="96"
       inkscape:export-ydpi="96" />
  </g>
</svg>
