<?xml version="1.0" encoding="UTF-8" standalone="no"?>
<svg
   xmlns:dc="http://purl.org/dc/elements/1.1/"
   xmlns:cc="http://creativecommons.org/ns#"
   xmlns:rdf="http://www.w3.org/1999/02/22-rdf-syntax-ns#"
   xmlns:svg="http://www.w3.org/2000/svg"
   xmlns="http://www.w3.org/2000/svg"
   xmlns:sodipodi="http://sodipodi.sourceforge.net/DTD/sodipodi-0.dtd"
   xmlns:inkscape="http://www.inkscape.org/namespaces/inkscape"
   width="164"
   height="164"
   version="1.1"
   id="svg4774"
   sodipodi:docname="maze-overlay.svg"
   inkscape:version="0.92.2 5c3e80d, 2017-08-06">
  <metadata
     id="metadata4780">
    <rdf:RDF>
      <cc:Work
         rdf:about="">
        <dc:format>image/svg+xml</dc:format>
        <dc:type
           rdf:resource="http://purl.org/dc/dcmitype/StillImage" />
        <dc:title>10 by 10 orthogonal maze</dc:title>
      </cc:Work>
    </rdf:RDF>
  </metadata>
  <defs
     id="defs4778" />
  <sodipodi:namedview
     pagecolor="#ffffff"
     bordercolor="#666666"
     borderopacity="1"
     objecttolerance="10"
     gridtolerance="10"
     guidetolerance="10"
     inkscape:pageopacity="0"
     inkscape:pageshadow="2"
     inkscape:window-width="1920"
     inkscape:window-height="1016"
     id="namedview4776"
     showgrid="true"
     showguides="true"
     inkscape:zoom="3.5484688"
     inkscape:cx="91.850189"
     inkscape:cy="100.17759"
     inkscape:window-x="0"
     inkscape:window-y="27"
     inkscape:window-maximized="1"
     inkscape:current-layer="svg4774">
    <inkscape:grid
       type="xygrid"
       id="grid4782" />
  </sodipodi:namedview>
  <title
     id="title4662">10 by 10 orthogonal maze</title>
  <desc
     id="desc4664">10 by 10 orthogonal maze generated by The Maze Generator Website (http://www.mazegenerator.net/).</desc>
  <g
     fill="none"
     stroke="#000000"
     stroke-width="2"
     stroke-linecap="square"
     id="g4772">
    <line
       x1="2"
       y1="2"
       x2="66"
       y2="2"
       id="line4666" />
    <line
       x1="82"
       y1="2"
       x2="162"
       y2="2"
       id="line4668" />
    <line
       x1="18"
       y1="18"
       x2="34"
       y2="18"
       id="line4670" />
    <line
       x1="66"
       y1="18"
       x2="98"
       y2="18"
       id="line4672" />
    <line
       x1="146"
       y1="18"
       x2="162"
       y2="18"
       id="line4674" />
    <line
       x1="2"
       y1="34"
       x2="18"
       y2="34"
       id="line4676" />
    <line
       x1="82"
       y1="34"
       x2="98"
       y2="34"
       id="line4678" />
    <line
       x1="130"
       y1="34"
       x2="146"
       y2="34"
       id="line4680" />
    <line
       x1="18"
       y1="50"
       x2="50"
       y2="50"
       id="line4682" />
    <line
       x1="66"
       y1="50"
       x2="82"
       y2="50"
       id="line4684" />
    <line
       x1="98"
       y1="50"
       x2="130"
       y2="50"
       id="line4686" />
    <line
       x1="146"
       y1="50"
       x2="162"
       y2="50"
       id="line4688" />
    <line
       x1="50"
       y1="66"
       x2="66"
       y2="66"
       id="line4690" />
    <line
       x1="18"
       y1="82"
       x2="50"
       y2="82"
       id="line4692" />
    <line
       x1="66"
       y1="82"
       x2="98"
       y2="82"
       id="line4694" />
    <line
       x1="114"
       y1="82"
       x2="130"
       y2="82"
       id="line4696" />
    <line
       x1="2"
       y1="98"
       x2="18"
       y2="98"
       id="line4698" />
    <line
       x1="34"
       y1="98"
       x2="50"
       y2="98"
       id="line4700" />
    <line
       x1="114"
       y1="98"
       x2="162"
       y2="98"
       id="line4702" />
    <line
       x1="50"
       y1="114"
       x2="66"
       y2="114"
       id="line4704" />
    <line
       x1="82"
       y1="114"
       x2="130"
       y2="114"
       id="line4706" />
    <line
       x1="146"
       y1="114"
       x2="162"
       y2="114"
       id="line4708" />
    <line
       x1="18"
       y1="130"
       x2="50"
       y2="130"
       id="line4710" />
    <line
       x1="66"
       y1="130"
       x2="114"
       y2="130"
       id="line4712" />
    <line
       x1="130"
       y1="130"
       x2="146"
       y2="130"
       id="line4714" />
    <line
       x1="2"
       y1="146"
       x2="34"
       y2="146"
       id="line4716" />
    <line
       x1="2"
       y1="162"
       x2="82"
       y2="162"
       id="line4718" />
    <line
       x1="98"
       y1="162"
       x2="162"
       y2="162"
       id="line4720" />
    <line
       x1="2"
       y1="2"
       x2="2"
       y2="162"
       id="line4722" />
    <line
       x1="18"
       y1="66"
       x2="18"
       y2="82"
       id="line4724" />
    <line
       x1="18"
       y1="114"
       x2="18"
       y2="130"
       id="line4726" />
    <line
       x1="34"
       y1="2"
       x2="34"
       y2="34"
       id="line4728" />
    <line
       x1="34"
       y1="50"
       x2="34"
       y2="66"
       id="line4730" />
    <line
       x1="34"
       y1="98"
       x2="34"
       y2="130"
       id="line4732" />
    <line
       x1="50"
       y1="18"
       x2="50"
       y2="98"
       id="line4734" />
    <line
       x1="50"
       y1="130"
       x2="50"
       y2="162"
       id="line4736" />
    <line
       x1="66"
       y1="18"
       x2="66"
       y2="50"
       id="line4738" />
    <line
       x1="66"
       y1="82"
       x2="66"
       y2="146"
       id="line4740" />
    <line
       x1="82"
       y1="50"
       x2="82"
       y2="82"
       id="line4742" />
    <line
       x1="82"
       y1="98"
       x2="82"
       y2="114"
       id="line4744" />
    <line
       x1="82"
       y1="146"
       x2="82"
       y2="162"
       id="line4746" />
    <line
       x1="98"
       y1="18"
       x2="98"
       y2="66"
       id="line4748" />
    <line
       x1="98"
       y1="82"
       x2="98"
       y2="98"
       id="line4750" />
    <line
       x1="98"
       y1="130"
       x2="98"
       y2="162"
       id="line4752" />
    <line
       x1="114"
       y1="2"
       x2="114"
       y2="34"
       id="line4754" />
    <line
       x1="114"
       y1="66"
       x2="114"
       y2="82"
       id="line4756" />
    <line
       x1="114"
       y1="98"
       x2="114"
       y2="114"
       id="line4758" />
    <line
       x1="114"
       y1="146"
       x2="114"
       y2="162"
       id="line4760" />
    <line
       x1="130"
       y1="18"
       x2="130"
       y2="82"
       id="line4762" />
    <line
       x1="130"
       y1="114"
       x2="130"
       y2="146"
       id="line4764" />
    <line
       x1="146"
       y1="50"
       x2="146"
       y2="82"
       id="line4766" />
    <line
       x1="146"
       y1="130"
       x2="146"
       y2="146"
       id="line4768" />
    <line
       x1="162"
       y1="2"
       x2="162"
       y2="162"
       id="line4770" />
  </g>
  <path
     style="fill:none;stroke:#000000;stroke-width:1.89999998;stroke-linecap:butt;stroke-linejoin:miter;stroke-opacity:1;stroke-miterlimit:4;stroke-dasharray:3.79999995,3.79999995;stroke-dashoffset:0;opacity:0.46067416"
     d="m 17.790804,189 c 0,-215 0,-215 0,-215 v 0 0"
     id="path4784"
     inkscape:connector-curvature="0" />
  <path
     inkscape:connector-curvature="0"
     id="path4795"
     d="m 34.154564,189 c 0,-215 0,-215 0,-215 v 0 0"
     style="fill:none;stroke:#000000;stroke-width:1.89999998;stroke-linecap:butt;stroke-linejoin:miter;stroke-opacity:1;stroke-miterlimit:4;stroke-dasharray:3.79999995,3.79999995;stroke-dashoffset:0;opacity:0.46067416" />
  <path
     style="fill:none;stroke:#000000;stroke-width:1.89999998;stroke-linecap:butt;stroke-linejoin:miter;stroke-opacity:1;stroke-miterlimit:4;stroke-dasharray:3.79999995,3.79999995;stroke-dashoffset:0;opacity:0.46067416"
     d="m 161.87276,189 c 0,-215 0,-215 0,-215 v 0 0"
     id="path4806"
     inkscape:connector-curvature="0" />
  <path
     inkscape:connector-curvature="0"
     id="path4817"
     d="m 49.81812,189 c 0,-215 0,-215 0,-215 v 0 0"
     style="fill:none;stroke:#000000;stroke-width:1.89999998;stroke-linecap:butt;stroke-linejoin:miter;stroke-opacity:1;stroke-miterlimit:4;stroke-dasharray:3.79999995,3.79999995;stroke-dashoffset:0;opacity:0.46067416" />
  <path
     style="fill:none;stroke:#000000;stroke-width:1.89999998;stroke-linecap:butt;stroke-linejoin:miter;stroke-opacity:1;stroke-miterlimit:4;stroke-dasharray:3.79999995,3.79999995;stroke-dashoffset:0;opacity:0.46067416"
     d="m 2.0453003,189 c 0,-215 0,-215 0,-215 v 0 0"
     id="path4828"
     inkscape:connector-curvature="0" />
  <path
     inkscape:connector-curvature="0"
     id="path4839"
     d="m 65.872752,189 c 0,-215 0,-215 0,-215 v 0 0"
     style="fill:none;stroke:#000000;stroke-width:1.89999998;stroke-linecap:butt;stroke-linejoin:miter;stroke-opacity:1;stroke-miterlimit:4;stroke-dasharray:3.79999995,3.79999995;stroke-dashoffset:0;opacity:0.46067416" />
  <path
     style="fill:none;stroke:#000000;stroke-width:1.89999998;stroke-linecap:butt;stroke-linejoin:miter;stroke-opacity:1;stroke-miterlimit:4;stroke-dasharray:3.79999995,3.79999995;stroke-dashoffset:0;opacity:0.46067416"
     d="m 81.845436,189 c 0,-215 0,-215 0,-215 v 0 0"
     id="path4850"
     inkscape:connector-curvature="0" />
  <path
     inkscape:connector-curvature="0"
     id="path4861"
     d="m 146.12724,189 c 0,-215 0,-215 0,-215 v 0 0"
     style="fill:none;stroke:#000000;stroke-width:1.89999998;stroke-linecap:butt;stroke-linejoin:miter;stroke-opacity:1;stroke-miterlimit:4;stroke-dasharray:3.79999995,3.79999995;stroke-dashoffset:0;opacity:0.46067416" />
  <path
     style="fill:none;stroke:#000000;stroke-width:1.89999998;stroke-linecap:butt;stroke-linejoin:miter;stroke-opacity:1;stroke-miterlimit:4;stroke-dasharray:3.79999995,3.79999995;stroke-dashoffset:0;opacity:0.46067416"
     d="m 129.84543,189 c 0,-215 0,-215 0,-215 v 0 0"
     id="path4872"
     inkscape:connector-curvature="0" />
  <path
     inkscape:connector-curvature="0"
     id="path4883"
     d="m 114.12724,189 c 0,-215 0,-215 0,-215 v 0 0"
     style="fill:none;stroke:#000000;stroke-width:1.89999998;stroke-linecap:butt;stroke-linejoin:miter;stroke-opacity:1;stroke-miterlimit:4;stroke-dasharray:3.79999995,3.79999995;stroke-dashoffset:0;opacity:0.46067416" />
  <path
     style="fill:none;stroke:#000000;stroke-width:1.89999998;stroke-linecap:butt;stroke-linejoin:miter;stroke-opacity:1;stroke-miterlimit:4;stroke-dasharray:3.79999995,3.79999995;stroke-dashoffset:0;opacity:0.46067416"
     d="m 98.12724,189 c 0,-215 0,-215 0,-215 v 0 0"
     id="path4894"
     inkscape:connector-curvature="0" />
  <path
     inkscape:connector-curvature="0"
     id="path4896"
     d="m -25.54097,17.331774 c 215,0 215,0 215,0 v 0 0"
     style="opacity:0.46067421;fill:none;stroke:#000000;stroke-width:1.89999998;stroke-linecap:butt;stroke-linejoin:miter;stroke-miterlimit:4;stroke-dasharray:3.79999995,3.79999995;stroke-dashoffset:0;stroke-opacity:1" />
  <path
     style="opacity:0.46067421;fill:none;stroke:#000000;stroke-width:1.89999998;stroke-linecap:butt;stroke-linejoin:miter;stroke-miterlimit:4;stroke-dasharray:3.79999995,3.79999995;stroke-dashoffset:0;stroke-opacity:1"
     d="m -25.54097,33.695534 c 215,0 215,0 215,0 v 0 0"
     id="path4898"
     inkscape:connector-curvature="0" />
  <path
     inkscape:connector-curvature="0"
     id="path4900"
     d="m -25.54097,161.41373 c 215,0 215,0 215,0 v 0 0"
     style="opacity:0.46067421;fill:none;stroke:#000000;stroke-width:1.89999998;stroke-linecap:butt;stroke-linejoin:miter;stroke-miterlimit:4;stroke-dasharray:3.79999995,3.79999995;stroke-dashoffset:0;stroke-opacity:1" />
  <path
     style="opacity:0.46067421;fill:none;stroke:#000000;stroke-width:1.89999998;stroke-linecap:butt;stroke-linejoin:miter;stroke-miterlimit:4;stroke-dasharray:3.79999995,3.79999995;stroke-dashoffset:0;stroke-opacity:1"
     d="m -25.54097,49.35909 c 215,0 215,0 215,0 v 0 0"
     id="path4902"
     inkscape:connector-curvature="0" />
  <path
     inkscape:connector-curvature="0"
     id="path4904"
     d="m -25.54097,1.58627 c 215,0 215,0 215,0 v 0 0"
     style="opacity:0.46067421;fill:none;stroke:#000000;stroke-width:1.89999998;stroke-linecap:butt;stroke-linejoin:miter;stroke-miterlimit:4;stroke-dasharray:3.79999995,3.79999995;stroke-dashoffset:0;stroke-opacity:1" />
  <path
     style="opacity:0.46067421;fill:none;stroke:#000000;stroke-width:1.89999998;stroke-linecap:butt;stroke-linejoin:miter;stroke-miterlimit:4;stroke-dasharray:3.79999995,3.79999995;stroke-dashoffset:0;stroke-opacity:1"
     d="m -25.54097,65.413722 c 215,0 215,0 215,0 v 0 0"
     id="path4906"
     inkscape:connector-curvature="0" />
  <path
     inkscape:connector-curvature="0"
     id="path4908"
     d="m -25.54097,81.38641 c 215,0 215,0 215,0 v 0 0"
     style="opacity:0.46067421;fill:none;stroke:#000000;stroke-width:1.89999998;stroke-linecap:butt;stroke-linejoin:miter;stroke-miterlimit:4;stroke-dasharray:3.79999995,3.79999995;stroke-dashoffset:0;stroke-opacity:1" />
  <path
     style="opacity:0.46067421;fill:none;stroke:#000000;stroke-width:1.89999998;stroke-linecap:butt;stroke-linejoin:miter;stroke-miterlimit:4;stroke-dasharray:3.79999995,3.79999995;stroke-dashoffset:0;stroke-opacity:1"
     d="m -25.54097,145.66821 c 215,0 215,0 215,0 v 0 0"
     id="path4910"
     inkscape:connector-curvature="0" />
  <path
     inkscape:connector-curvature="0"
     id="path4912"
     d="m -25.54097,129.3864 c 215,0 215,0 215,0 v 0 0"
     style="opacity:0.46067421;fill:none;stroke:#000000;stroke-width:1.89999998;stroke-linecap:butt;stroke-linejoin:miter;stroke-miterlimit:4;stroke-dasharray:3.79999995,3.79999995;stroke-dashoffset:0;stroke-opacity:1" />
  <path
     style="opacity:0.46067421;fill:none;stroke:#000000;stroke-width:1.89999998;stroke-linecap:butt;stroke-linejoin:miter;stroke-miterlimit:4;stroke-dasharray:3.79999995,3.79999995;stroke-dashoffset:0;stroke-opacity:1"
     d="m -25.54097,113.66821 c 215,0 215,0 215,0 v 0 0"
     id="path4914"
     inkscape:connector-curvature="0" />
  <path
     inkscape:connector-curvature="0"
     id="path4916"
     d="m -25.54097,97.66821 c 215,0 215,0 215,0 v 0 0"
     style="opacity:0.46067421;fill:none;stroke:#000000;stroke-width:1.89999998;stroke-linecap:butt;stroke-linejoin:miter;stroke-miterlimit:4;stroke-dasharray:3.79999995,3.79999995;stroke-dashoffset:0;stroke-opacity:1" />
</svg>
