<?xml version="1.0" encoding="UTF-8" standalone="no"?>
<svg
   xmlns:dc="http://purl.org/dc/elements/1.1/"
   xmlns:cc="http://creativecommons.org/ns#"
   xmlns:rdf="http://www.w3.org/1999/02/22-rdf-syntax-ns#"
   xmlns:svg="http://www.w3.org/2000/svg"
   xmlns="http://www.w3.org/2000/svg"
   xmlns:sodipodi="http://sodipodi.sourceforge.net/DTD/sodipodi-0.dtd"
   xmlns:inkscape="http://www.inkscape.org/namespaces/inkscape"
   width="164"
   height="164"
   version="1.1"
   id="svg4774"
   sodipodi:docname="maze.svg"
   inkscape:version="0.92.2 5c3e80d, 2017-08-06">
  <metadata
     id="metadata4780">
    <rdf:RDF>
      <cc:Work
         rdf:about="">
        <dc:format>image/svg+xml</dc:format>
        <dc:type
           rdf:resource="http://purl.org/dc/dcmitype/StillImage" />
      </cc:Work>
    </rdf:RDF>
  </metadata>
  <defs
     id="defs4778" />
  <sodipodi:namedview
     pagecolor="#ffffff"
     bordercolor="#666666"
     borderopacity="1"
     objecttolerance="10"
     gridtolerance="10"
     guidetolerance="10"
     inkscape:pageopacity="0"
     inkscape:pageshadow="2"
     inkscape:window-width="1920"
     inkscape:window-height="1016"
     id="namedview4776"
     showgrid="true"
     showguides="true"
     inkscape:zoom="3.5484688"
     inkscape:cx="34.360604"
     inkscape:cy="88.905122"
     inkscape:window-x="0"
     inkscape:window-y="27"
     inkscape:window-maximized="1"
     inkscape:current-layer="svg4774">
    <inkscape:grid
       type="xygrid"
       id="grid4782" />
  </sodipodi:namedview>
  <title
     id="title4662">10 by 10 orthogonal maze</title>
  <desc
     id="desc4664">10 by 10 orthogonal maze generated by The Maze Generator Website (http://www.mazegenerator.net/).</desc>
  <g
     fill="none"
     stroke="#000000"
     stroke-width="2"
     stroke-linecap="square"
     id="g4772">
    <line
       x1="2"
       y1="2"
       x2="66"
       y2="2"
       id="line4666" />
    <line
       x1="82"
       y1="2"
       x2="162"
       y2="2"
       id="line4668" />
    <line
       x1="18"
       y1="18"
       x2="34"
       y2="18"
       id="line4670" />
    <line
       x1="66"
       y1="18"
       x2="98"
       y2="18"
       id="line4672" />
    <line
       x1="146"
       y1="18"
       x2="162"
       y2="18"
       id="line4674" />
    <line
       x1="2"
       y1="34"
       x2="18"
       y2="34"
       id="line4676" />
    <line
       x1="82"
       y1="34"
       x2="98"
       y2="34"
       id="line4678" />
    <line
       x1="130"
       y1="34"
       x2="146"
       y2="34"
       id="line4680" />
    <line
       x1="18"
       y1="50"
       x2="50"
       y2="50"
       id="line4682" />
    <line
       x1="66"
       y1="50"
       x2="82"
       y2="50"
       id="line4684" />
    <line
       x1="98"
       y1="50"
       x2="130"
       y2="50"
       id="line4686" />
    <line
       x1="146"
       y1="50"
       x2="162"
       y2="50"
       id="line4688" />
    <line
       x1="50"
       y1="66"
       x2="66"
       y2="66"
       id="line4690" />
    <line
       x1="18"
       y1="82"
       x2="50"
       y2="82"
       id="line4692" />
    <line
       x1="66"
       y1="82"
       x2="98"
       y2="82"
       id="line4694" />
    <line
       x1="114"
       y1="82"
       x2="130"
       y2="82"
       id="line4696" />
    <line
       x1="2"
       y1="98"
       x2="18"
       y2="98"
       id="line4698" />
    <line
       x1="34"
       y1="98"
       x2="50"
       y2="98"
       id="line4700" />
    <line
       x1="114"
       y1="98"
       x2="162"
       y2="98"
       id="line4702" />
    <line
       x1="50"
       y1="114"
       x2="66"
       y2="114"
       id="line4704" />
    <line
       x1="82"
       y1="114"
       x2="130"
       y2="114"
       id="line4706" />
    <line
       x1="146"
       y1="114"
       x2="162"
       y2="114"
       id="line4708" />
    <line
       x1="18"
       y1="130"
       x2="50"
       y2="130"
       id="line4710" />
    <line
       x1="66"
       y1="130"
       x2="114"
       y2="130"
       id="line4712" />
    <line
       x1="130"
       y1="130"
       x2="146"
       y2="130"
       id="line4714" />
    <line
       x1="2"
       y1="146"
       x2="34"
       y2="146"
       id="line4716" />
    <line
       x1="2"
       y1="162"
       x2="82"
       y2="162"
       id="line4718" />
    <line
       x1="98"
       y1="162"
       x2="162"
       y2="162"
       id="line4720" />
    <line
       x1="2"
       y1="2"
       x2="2"
       y2="162"
       id="line4722" />
    <line
       x1="18"
       y1="66"
       x2="18"
       y2="82"
       id="line4724" />
    <line
       x1="18"
       y1="114"
       x2="18"
       y2="130"
       id="line4726" />
    <line
       x1="34"
       y1="2"
       x2="34"
       y2="34"
       id="line4728" />
    <line
       x1="34"
       y1="50"
       x2="34"
       y2="66"
       id="line4730" />
    <line
       x1="34"
       y1="98"
       x2="34"
       y2="130"
       id="line4732" />
    <line
       x1="50"
       y1="18"
       x2="50"
       y2="98"
       id="line4734" />
    <line
       x1="50"
       y1="130"
       x2="50"
       y2="162"
       id="line4736" />
    <line
       x1="66"
       y1="18"
       x2="66"
       y2="50"
       id="line4738" />
    <line
       x1="66"
       y1="82"
       x2="66"
       y2="146"
       id="line4740" />
    <line
       x1="82"
       y1="50"
       x2="82"
       y2="82"
       id="line4742" />
    <line
       x1="82"
       y1="98"
       x2="82"
       y2="114"
       id="line4744" />
    <line
       x1="82"
       y1="146"
       x2="82"
       y2="162"
       id="line4746" />
    <line
       x1="98"
       y1="18"
       x2="98"
       y2="66"
       id="line4748" />
    <line
       x1="98"
       y1="82"
       x2="98"
       y2="98"
       id="line4750" />
    <line
       x1="98"
       y1="130"
       x2="98"
       y2="162"
       id="line4752" />
    <line
       x1="114"
       y1="2"
       x2="114"
       y2="34"
       id="line4754" />
    <line
       x1="114"
       y1="66"
       x2="114"
       y2="82"
       id="line4756" />
    <line
       x1="114"
       y1="98"
       x2="114"
       y2="114"
       id="line4758" />
    <line
       x1="114"
       y1="146"
       x2="114"
       y2="162"
       id="line4760" />
    <line
       x1="130"
       y1="18"
       x2="130"
       y2="82"
       id="line4762" />
    <line
       x1="130"
       y1="114"
       x2="130"
       y2="146"
       id="line4764" />
    <line
       x1="146"
       y1="50"
       x2="146"
       y2="82"
       id="line4766" />
    <line
       x1="146"
       y1="130"
       x2="146"
       y2="146"
       id="line4768" />
    <line
       x1="162"
       y1="2"
       x2="162"
       y2="162"
       id="line4770" />
  </g>
</svg>
